<svg width="40" height="40" viewBox="0 0 40 40" fill="none" xmlns="http://www.w3.org/2000/svg">
<path d="M34.9297 8.74891C32.2578 8.78797 30.0625 10.9677 30.0078 13.6395C29.9688 15.538 30.9844 17.202 32.5078 18.077V26.8739C32.5078 31.3505 28.5859 34.9989 23.7578 34.9989C19.0703 34.9989 15.2266 31.5536 15.0156 27.2489C20.7031 26.077 25 21.0302 25 14.9989V2.85828C25 1.96766 24.3672 1.19422 23.4922 1.02235L18.5781 0.0379706C17.5625 -0.165154 16.5781 0.491096 16.375 1.50672L16.125 2.73328C15.9219 3.74891 16.5781 4.73328 17.5938 4.93641L19.9922 5.41297V14.8973C19.9922 19.0302 16.6953 22.452 12.5625 22.4911C8.39062 22.5302 4.99219 19.1552 4.99219 14.9911V5.42078L7.39062 4.94422C8.40625 4.7411 9.0625 3.75672 8.85938 2.7411L8.61719 1.51453C8.41406 0.498908 7.42969 -0.157342 6.41406 0.0457831L1.50781 1.01453C0.632812 1.19422 0 1.95985 0 2.85828V14.9989C0 21.038 4.30469 26.0927 10.0078 27.2489C10.2109 34.3114 16.2969 39.9989 23.75 39.9989C31.3281 39.9989 37.5 34.1083 37.5 26.8739V18.077C38.9922 17.2098 40 15.6005 40 13.7489C40 10.9598 37.7188 8.70984 34.9297 8.74891ZM35 14.9989C34.3125 14.9989 33.75 14.4364 33.75 13.7489C33.75 13.0614 34.3125 12.4989 35 12.4989C35.6875 12.4989 36.25 13.0614 36.25 13.7489C36.25 14.4364 35.6875 14.9989 35 14.9989Z" fill="#4B566B"/>
</svg>
