<svg width="31" height="44" viewBox="0 0 31 44" fill="none" xmlns="http://www.w3.org/2000/svg">
<path d="M15.5401 0.17598C8.73557 0.17598 4.32822 2.96391 0.868005 7.93595C0.240309 8.8379 0.433827 10.0745 1.30943 10.7385L4.98695 13.5269C5.87125 14.1974 7.12945 14.0406 7.82177 13.1733C9.9572 10.4981 11.5412 8.95776 14.8768 8.95776C17.4994 8.95776 20.7434 10.6456 20.7434 13.1888C20.7434 15.1114 19.1563 16.0987 16.5667 17.5505C13.5469 19.2436 9.55073 21.3507 9.55073 26.6216V27.456C9.55073 28.586 10.4667 29.502 11.5967 29.502H17.7749C18.9049 29.502 19.8209 28.586 19.8209 27.456V26.9639C19.8209 23.31 30.5 23.1579 30.5 13.2704C30.5001 5.82431 22.7763 0.17598 15.5401 0.17598ZM14.6859 32.0134C11.4296 32.0134 8.78049 34.6625 8.78049 37.9188C8.78049 41.1749 11.4296 43.824 14.6859 43.824C17.9421 43.824 20.5912 41.1749 20.5912 37.9187C20.5912 34.6625 17.9421 32.0134 14.6859 32.0134Z" fill="#4B566B"/>
</svg>
