<svg width="40" height="36" viewBox="0 0 40 36" fill="none" xmlns="http://www.w3.org/2000/svg">
<path d="M40 16.8889C40 15.2479 39.1007 13.8306 37.7778 13.0611V2.44514C37.7778 1.8375 37.2931 0.222221 35.5556 0.222221C35.0611 0.222221 34.5701 0.387499 34.1681 0.709721L28.2632 5.43403C25.2972 7.80486 21.5736 9.11111 17.7778 9.11111H4.44444C1.98958 9.11111 0 11.1007 0 13.5556V20.2222C0 22.6771 1.98958 24.6667 4.44444 24.6667H6.78472C6.68819 25.3944 6.63333 26.1347 6.63333 26.8889C6.63333 29.6507 7.27639 32.2604 8.40833 34.5931C8.76875 35.3354 9.55556 35.7778 10.3806 35.7778H15.5389C17.3479 35.7778 18.434 33.7056 17.3375 32.2667C16.1986 30.7722 15.5215 28.9083 15.5215 26.8889C15.5215 26.1174 15.634 25.3757 15.8278 24.6667H17.7778C21.5736 24.6667 25.2972 25.9729 28.2625 28.3437L34.1674 33.0681C34.5612 33.3832 35.0505 33.5551 35.5549 33.5556C37.2854 33.5556 37.7771 31.9736 37.7771 31.3333V20.7174C39.1007 19.9472 40 18.5299 40 16.8889ZM33.3333 26.7097L31.0382 24.8736C27.2882 21.8736 22.5778 20.2222 17.7778 20.2222V13.5556C22.5778 13.5556 27.2882 11.9042 31.0382 8.90417L33.3333 7.06805V26.7097Z" fill="#4B566B"/>
</svg>
