<svg width="44" height="44" viewBox="0 0 44 44" fill="none" xmlns="http://www.w3.org/2000/svg">
<circle cx="22" cy="22" r="22" fill="#F3F5F9"/>
<rect width="20" height="20" transform="translate(12 12)" fill="#F3F5F9"/>
<path fill-rule="evenodd" clip-rule="evenodd" d="M12 13.875C12 13.7092 12.0658 13.5503 12.1831 13.4331C12.3003 13.3158 12.4592 13.25 12.625 13.25H14.5C14.6394 13.25 14.7748 13.2967 14.8847 13.3825C14.9945 13.4684 15.0725 13.5885 15.1062 13.7237L15.6125 15.75H30.125C30.2174 15.7501 30.3087 15.7706 30.3922 15.8102C30.4758 15.8498 30.5495 15.9074 30.6081 15.9789C30.6666 16.0504 30.7086 16.134 30.731 16.2237C30.7534 16.3133 30.7556 16.4069 30.7375 16.4975L29.4875 22.7475C29.4602 22.8838 29.3882 23.0071 29.2829 23.0979C29.1776 23.1886 29.0451 23.2417 28.9062 23.2487L17.16 23.8387L17.5188 25.75H28.25C28.4158 25.75 28.5747 25.8158 28.6919 25.9331C28.8092 26.0503 28.875 26.2092 28.875 26.375C28.875 26.5408 28.8092 26.6997 28.6919 26.8169C28.5747 26.9342 28.4158 27 28.25 27H17C16.8543 26.9999 16.7132 26.9488 16.6011 26.8557C16.4891 26.7626 16.4131 26.6332 16.3863 26.49L14.5125 16.5088L14.0125 14.5H12.625C12.4592 14.5 12.3003 14.4342 12.1831 14.3169C12.0658 14.1997 12 14.0408 12 13.875ZM15.8775 17L16.9275 22.5988L28.3575 22.025L29.3625 17H15.8775ZM18.25 27C17.587 27 16.9511 27.2634 16.4822 27.7322C16.0134 28.2011 15.75 28.837 15.75 29.5C15.75 30.163 16.0134 30.7989 16.4822 31.2678C16.9511 31.7366 17.587 32 18.25 32C18.913 32 19.5489 31.7366 20.0178 31.2678C20.4866 30.7989 20.75 30.163 20.75 29.5C20.75 28.837 20.4866 28.2011 20.0178 27.7322C19.5489 27.2634 18.913 27 18.25 27ZM27 27C26.337 27 25.7011 27.2634 25.2322 27.7322C24.7634 28.2011 24.5 28.837 24.5 29.5C24.5 30.163 24.7634 30.7989 25.2322 31.2678C25.7011 31.7366 26.337 32 27 32C27.663 32 28.2989 31.7366 28.7678 31.2678C29.2366 30.7989 29.5 30.163 29.5 29.5C29.5 28.837 29.2366 28.2011 28.7678 27.7322C28.2989 27.2634 27.663 27 27 27ZM18.25 28.25C17.9185 28.25 17.6005 28.3817 17.3661 28.6161C17.1317 28.8505 17 29.1685 17 29.5C17 29.8315 17.1317 30.1495 17.3661 30.3839C17.6005 30.6183 17.9185 30.75 18.25 30.75C18.5815 30.75 18.8995 30.6183 19.1339 30.3839C19.3683 30.1495 19.5 29.8315 19.5 29.5C19.5 29.1685 19.3683 28.8505 19.1339 28.6161C18.8995 28.3817 18.5815 28.25 18.25 28.25ZM27 28.25C26.6685 28.25 26.3505 28.3817 26.1161 28.6161C25.8817 28.8505 25.75 29.1685 25.75 29.5C25.75 29.8315 25.8817 30.1495 26.1161 30.3839C26.3505 30.6183 26.6685 30.75 27 30.75C27.3315 30.75 27.6495 30.6183 27.8839 30.3839C28.1183 30.1495 28.25 29.8315 28.25 29.5C28.25 29.1685 28.1183 28.8505 27.8839 28.6161C27.6495 28.3817 27.3315 28.25 27 28.25Z" fill="#4B566B"/>
</svg>
