<svg width="23" height="22" viewBox="0 0 23 22" fill="none" xmlns="http://www.w3.org/2000/svg">
<path d="M21.0625 0H2.30762C1.44824 0 0.75 0.708008 0.75 1.57715V20.2979C0.75 21.167 1.44824 21.875 2.30762 21.875H21.0625C21.9219 21.875 22.625 21.167 22.625 20.2979V1.57715C22.625 0.708008 21.9219 0 21.0625 0ZM7.36133 18.75H4.11914V8.31055H7.36621V18.75H7.36133ZM5.74023 6.88477C4.7002 6.88477 3.86035 6.04004 3.86035 5.00488C3.86035 3.96973 4.7002 3.125 5.74023 3.125C6.77539 3.125 7.62012 3.96973 7.62012 5.00488C7.62012 6.04492 6.78027 6.88477 5.74023 6.88477ZM19.5146 18.75H16.2725V13.6719C16.2725 12.4609 16.248 10.9033 14.5879 10.9033C12.8984 10.9033 12.6396 12.2217 12.6396 13.584V18.75H9.39746V8.31055H12.5078V9.73633H12.5518C12.9863 8.91602 14.0459 8.05176 15.623 8.05176C18.9043 8.05176 19.5146 10.2148 19.5146 13.0273V18.75Z" fill="#0984DD"/>
</svg>
