<svg width="20" height="20" viewBox="0 0 20 20" fill="none" xmlns="http://www.w3.org/2000/svg">
<path d="M19.7967 14.8815V17.8247C19.7979 18.098 19.7419 18.3684 19.6324 18.6187C19.523 18.8691 19.3624 19.0938 19.1611 19.2785C18.9598 19.4632 18.7221 19.6039 18.4632 19.6914C18.2044 19.7789 17.9301 19.8115 17.658 19.7869C14.6391 19.4588 11.7392 18.4272 9.1914 16.775C6.82098 15.2687 4.81127 13.259 3.305 10.8886C1.64697 8.32917 0.615148 5.41519 0.293119 2.38272C0.268603 2.11142 0.300845 1.83799 0.387793 1.57984C0.47474 1.32168 0.614488 1.08446 0.79814 0.883276C0.981791 0.68209 1.20532 0.521349 1.4545 0.411285C1.70368 0.301222 1.97304 0.244248 2.24544 0.243992H5.18865C5.66477 0.239306 6.12634 0.407907 6.48735 0.71837C6.84835 1.02883 7.08415 1.45997 7.15078 1.93143C7.27501 2.87332 7.50539 3.79813 7.83753 4.68823C7.96953 5.03938 7.99809 5.421 7.91985 5.78789C7.8416 6.15477 7.65982 6.49154 7.39605 6.75828L6.15009 8.00424C7.5467 10.4604 9.58035 12.494 12.0365 13.8906L13.2825 12.6447C13.5492 12.3809 13.886 12.1991 14.2528 12.1209C14.6197 12.0426 15.0014 12.0712 15.3525 12.2032C16.2426 12.5353 17.1674 12.7657 18.1093 12.89C18.5859 12.9572 19.0211 13.1972 19.3322 13.5644C19.6434 13.9316 19.8087 14.4004 19.7967 14.8815Z" fill="#2B3445"/>
</svg>
