<svg width="44" height="44" viewBox="0 0 44 44" fill="none" xmlns="http://www.w3.org/2000/svg">
<circle cx="22" cy="22" r="22" fill="#F3F5F9"/>
<path fill-rule="evenodd" clip-rule="evenodd" d="M25.2216 17C25.2216 17.7661 24.9172 18.5009 24.3754 19.0427C23.8337 19.5845 23.0989 19.8888 22.3327 19.8888C21.5665 19.8888 20.8317 19.5845 20.2899 19.0427C19.7482 18.5009 19.4438 17.7661 19.4438 17C19.4438 16.2338 19.7482 15.499 20.2899 14.9572C20.8317 14.4154 21.5665 14.1111 22.3327 14.1111C23.0989 14.1111 23.8337 14.4154 24.3754 14.9572C24.9172 15.499 25.2216 16.2338 25.2216 17ZM22.3327 21.3333C23.482 21.3333 24.5842 20.8767 25.3968 20.0641C26.2095 19.2514 26.666 18.1492 26.666 17C26.666 15.8507 26.2095 14.7485 25.3968 13.9358C24.5842 13.1232 23.482 12.6666 22.3327 12.6666C21.1834 12.6666 20.0812 13.1232 19.2686 13.9358C18.4559 14.7485 17.9993 15.8507 17.9993 17C17.9993 18.1492 18.4559 19.2514 19.2686 20.0641C20.0812 20.8767 21.1834 21.3333 22.3327 21.3333ZM30.9993 28.5555C30.9993 30 29.5549 30 29.5549 30H15.1105C15.1105 30 13.666 30 13.666 28.5555C13.666 27.1111 15.1105 22.7777 22.3327 22.7777C29.5549 22.7777 30.9993 27.1111 30.9993 28.5555ZM29.5549 28.5497C29.5535 28.1944 29.3325 27.1255 28.3531 26.1462C27.4114 25.2044 25.639 24.2222 22.3327 24.2222C19.0249 24.2222 17.254 25.2044 16.3122 26.1462C15.3329 27.1255 15.1133 28.1944 15.1105 28.5497H29.5549Z" fill="#4B566B"/>
</svg>
