<svg width="32" height="32" viewBox="0 0 32 32" fill="none" xmlns="http://www.w3.org/2000/svg">
<rect width="32" height="32" rx="16" fill="#0984DD"/>
<path fill-rule="evenodd" clip-rule="evenodd" d="M16 13.2727C14.4938 13.2727 13.2727 14.4938 13.2727 16C13.2727 17.5062 14.4938 18.7273 16 18.7273C17.5062 18.7273 18.7273 17.5062 18.7273 16C18.7273 14.4938 17.5062 13.2727 16 13.2727ZM14.3636 16C14.3636 16.9037 15.0963 17.6364 16 17.6364C16.9037 17.6364 17.6364 16.9037 17.6364 16C17.6364 15.0963 16.9037 14.3636 16 14.3636C15.0963 14.3636 14.3636 15.0963 14.3636 16Z" fill="white"/>
<path d="M19.2727 12.1818C18.9715 12.1818 18.7273 12.426 18.7273 12.7273C18.7273 13.0285 18.9715 13.2727 19.2727 13.2727C19.574 13.2727 19.8182 13.0285 19.8182 12.7273C19.8182 12.426 19.574 12.1818 19.2727 12.1818Z" fill="white"/>
<path fill-rule="evenodd" clip-rule="evenodd" d="M12.1818 10C10.9768 10 10 10.9768 10 12.1818V19.8182C10 21.0232 10.9768 22 12.1818 22H19.8182C21.0232 22 22 21.0232 22 19.8182V12.1818C22 10.9768 21.0232 10 19.8182 10H12.1818ZM19.8182 11.0909H12.1818C11.5793 11.0909 11.0909 11.5793 11.0909 12.1818V19.8182C11.0909 20.4207 11.5793 20.9091 12.1818 20.9091H19.8182C20.4207 20.9091 20.9091 20.4207 20.9091 19.8182V12.1818C20.9091 11.5793 20.4207 11.0909 19.8182 11.0909Z" fill="white"/>
</svg>
