<svg width="32" height="32" viewBox="0 0 32 32" fill="none" xmlns="http://www.w3.org/2000/svg">
<rect width="32" height="32" rx="16" fill="#0984DD"/>
<path fill-rule="evenodd" clip-rule="evenodd" d="M14.0526 10.0001C14.634 10.0001 15.1053 10.597 15.1053 11.3334V13.3334H18.2632C18.8445 13.3334 19.3158 13.9303 19.3158 14.6667C19.3158 15.4031 18.8445 16.0001 18.2632 16.0001H15.1053V17.3334C15.1053 18.438 15.8122 19.3334 16.6842 19.3334H18.2632C18.8445 19.3334 19.3158 19.9303 19.3158 20.6667C19.3158 21.4031 18.8445 22.0001 18.2632 22.0001H16.6842C14.6495 22.0001 13 19.9107 13 17.3334V11.3334C13 10.597 13.4713 10.0001 14.0526 10.0001Z" fill="white"/>
</svg>
