<svg width="64" height="64" viewBox="0 0 64 64" fill="none" xmlns="http://www.w3.org/2000/svg">
<circle cx="32" cy="32" r="32" fill="#F3F5F9"/>
<path fill-rule="evenodd" clip-rule="evenodd" d="M35.6699 17.728L32.3319 16L28.9939 17.728L25.2779 18.292L23.5939 21.652L20.9199 24.292L21.5319 28L20.9199 31.708L23.5939 34.348L25.2779 37.708L28.9939 38.272L32.3319 40L35.6699 38.272L39.3859 37.708L41.0699 34.348L43.7439 31.708L43.1319 28L43.7439 24.292L41.0699 21.652L39.3859 18.292L35.6699 17.728ZM38.0619 20.114L35.0419 19.656L32.3319 18.252L29.6219 19.656L26.6019 20.114L25.2339 22.844L23.0619 24.988L23.5599 28L23.0599 31.012L25.2339 33.156L26.6019 35.886L29.6219 36.344L32.3319 37.748L35.0439 36.344L38.0619 35.886L39.4299 33.156L41.6019 31.012L41.1059 28L41.6019 24.988L39.4299 22.844L38.0619 20.114Z" fill="#4B566B"/>
<path d="M24.332 39.5879V47.9999L32.332 45.9999L40.332 47.9999V39.5879L36.296 40.1999L32.332 42.2519L28.368 40.1999L24.332 39.5879Z" fill="#4B566B"/>
</svg>
