<svg width="65" height="64" viewBox="0 0 65 64" fill="none" xmlns="http://www.w3.org/2000/svg">
<circle cx="32.334" cy="32" r="32" fill="#F3F5F9"/>
<g clip-path="url(#clip0_9334_2450)">
<path fill-rule="evenodd" clip-rule="evenodd" d="M34.0226 19.2671C33.5306 17.5971 31.1666 17.5971 30.6746 19.2671L30.4866 19.9051C30.3285 20.441 30.0525 20.9347 29.6789 21.3502C29.3052 21.7656 28.8434 22.0921 28.3272 22.3059C27.811 22.5198 27.2535 22.6154 26.6955 22.5858C26.1376 22.5563 25.5933 22.4023 25.1026 22.1351L24.5186 21.8151C22.9906 20.9851 21.3186 22.6551 22.1506 24.1851L22.4686 24.7691C22.7358 25.2598 22.8898 25.8041 22.9193 26.3621C22.9489 26.92 22.8532 27.4775 22.6394 27.9937C22.4256 28.5099 22.0991 28.9717 21.6837 29.3454C21.2682 29.719 20.7745 29.995 20.2386 30.1531L19.6006 30.3411C17.9306 30.8331 17.9306 33.1971 19.6006 33.6891L20.2386 33.8771C20.7748 34.0352 21.2688 34.3112 21.6844 34.685C22.1 35.0588 22.4267 35.5208 22.6406 36.0373C22.8544 36.5537 22.9499 37.1115 22.9202 37.6697C22.8904 38.2279 22.7361 38.7723 22.4686 39.2631L22.1486 39.8451C21.3186 41.3731 22.9886 43.0451 24.5186 42.2131L25.1026 41.8951C25.5935 41.628 26.1379 41.4741 26.6959 41.4446C27.254 41.4152 27.8115 41.511 28.3278 41.725C28.844 41.939 29.3058 42.2658 29.6794 42.6815C30.0529 43.0971 30.3287 43.5911 30.4866 44.1271L30.6746 44.7631C31.1666 46.4331 33.5306 46.4331 34.0226 44.7631L34.2106 44.1251C34.3687 43.5889 34.6447 43.0949 35.0185 42.6793C35.3922 42.2637 35.8543 41.937 36.3708 41.7232C36.8872 41.5093 37.445 41.4138 38.0032 41.4435C38.5614 41.4733 39.1058 41.6276 39.5966 41.8951L40.1786 42.2151C41.7066 43.0451 43.3786 41.3751 42.5466 39.8451L42.2286 39.2631C41.9611 38.7722 41.8069 38.2276 41.7773 37.6693C41.7476 37.111 41.8433 36.5532 42.0574 36.0367C42.2714 35.5202 42.5984 35.0582 43.0142 34.6845C43.43 34.3108 43.9243 34.0349 44.4606 33.8771L45.0966 33.6891C46.7666 33.1971 46.7666 30.8331 45.0966 30.3411L44.4586 30.1531C43.9227 29.995 43.429 29.719 43.0136 29.3454C42.5982 28.9717 42.2716 28.5099 42.0578 27.9937C41.844 27.4775 41.7483 26.92 41.7779 26.3621C41.8075 25.8041 41.9615 25.2598 42.2286 24.7691L42.5486 24.1851C43.3786 22.6571 41.7086 20.9851 40.1786 21.8171L39.5966 22.1351C39.1057 22.403 38.5611 22.5576 38.0027 22.5876C37.4443 22.6175 36.8862 22.5221 36.3695 22.3082C35.8528 22.0943 35.3905 21.7675 35.0166 21.3517C34.6427 20.9358 34.3666 20.4416 34.2086 19.9051L34.0206 19.2671H34.0226ZM28.7566 18.7011C29.8106 15.1211 34.8866 15.1211 35.9406 18.7011L36.1286 19.3391C36.2022 19.589 36.3308 19.8193 36.505 20.013C36.6791 20.2068 36.8945 20.3591 37.1351 20.4588C37.3758 20.5585 37.6357 20.6031 37.8959 20.5893C38.1561 20.5756 38.4098 20.5037 38.6386 20.3791L39.2226 20.0591C42.5026 18.2751 46.0906 21.8611 44.3026 25.1411L43.9846 25.7251C43.86 25.9539 43.7882 26.2077 43.7744 26.4678C43.7606 26.728 43.8052 26.9879 43.9049 27.2286C44.0046 27.4693 44.1569 27.6846 44.3507 27.8587C44.5444 28.0329 44.7747 28.1615 45.0246 28.2351L45.6626 28.4231C49.2426 29.4771 49.2426 34.5531 45.6626 35.6071L45.0246 35.7951C44.7747 35.8687 44.5444 35.9973 44.3507 36.1715C44.1569 36.3456 44.0046 36.561 43.9049 36.8016C43.8052 37.0423 43.7606 37.3023 43.7744 37.5624C43.7882 37.8226 43.86 38.0763 43.9846 38.3051L44.3046 38.8891C46.0906 42.1691 42.5006 45.7571 39.2226 43.9691L38.6386 43.6511C38.4098 43.5265 38.1561 43.4547 37.8959 43.4409C37.6357 43.4271 37.3758 43.4717 37.1351 43.5714C36.8945 43.6711 36.6791 43.8235 36.505 44.0172C36.3308 44.2109 36.2022 44.4412 36.1286 44.6911L35.9406 45.3291C34.8866 48.9091 29.8106 48.9091 28.7566 45.3291L28.5686 44.6911C28.495 44.4412 28.3664 44.2109 28.1922 44.0172C28.0181 43.8235 27.8028 43.6711 27.5621 43.5714C27.3214 43.4717 27.0615 43.4271 26.8013 43.4409C26.5412 43.4547 26.2874 43.5265 26.0586 43.6511L25.4746 43.9711C22.1946 45.7571 18.6086 42.1671 20.3946 38.8891L20.7126 38.3051C20.8372 38.0763 20.9091 37.8226 20.9228 37.5624C20.9366 37.3023 20.892 37.0423 20.7923 36.8016C20.6926 36.561 20.5403 36.3456 20.3465 36.1715C20.1528 35.9973 19.9225 35.8687 19.6726 35.7951L19.0346 35.6071C15.4546 34.5531 15.4546 29.4771 19.0346 28.4231L19.6726 28.2351C19.9225 28.1615 20.1528 28.0329 20.3465 27.8587C20.5403 27.6846 20.6926 27.4693 20.7923 27.2286C20.892 26.9879 20.9366 26.728 20.9228 26.4678C20.9091 26.2077 20.8372 25.9539 20.7126 25.7251L20.3926 25.1411C18.6086 21.8611 22.1966 18.2751 25.4746 20.0611L26.0586 20.3791C26.2874 20.5037 26.5412 20.5756 26.8013 20.5893C27.0615 20.6031 27.3214 20.5585 27.5621 20.4588C27.8028 20.3591 28.0181 20.2068 28.1922 20.013C28.3664 19.8193 28.495 19.589 28.5686 19.3391L28.7566 18.7011Z" fill="#4B566B"/>
<path fill-rule="evenodd" clip-rule="evenodd" d="M32.3338 27.5078C31.1424 27.5078 29.9999 27.9811 29.1575 28.8235C28.3151 29.6659 27.8418 30.8085 27.8418 31.9998C27.8418 33.1912 28.3151 34.3337 29.1575 35.1761C29.9999 36.0185 31.1424 36.4918 32.3338 36.4918C33.5251 36.4918 34.6677 36.0185 35.5101 35.1761C36.3525 34.3337 36.8258 33.1912 36.8258 31.9998C36.8258 30.8085 36.3525 29.6659 35.5101 28.8235C34.6677 27.9811 33.5251 27.5078 32.3338 27.5078ZM25.8418 31.9998C25.8418 31.1473 26.0097 30.3031 26.336 29.5154C26.6622 28.7278 27.1404 28.0121 27.7433 27.4093C28.3461 26.8064 29.0618 26.3282 29.8494 26.002C30.6371 25.6757 31.4813 25.5078 32.3338 25.5078C33.1863 25.5078 34.0305 25.6757 34.8182 26.002C35.6058 26.3282 36.3215 26.8064 36.9243 27.4093C37.5272 28.0121 38.0054 28.7278 38.3316 29.5154C38.6579 30.3031 38.8258 31.1473 38.8258 31.9998C38.8258 33.7216 38.1418 35.3729 36.9243 36.5904C35.7068 37.8078 34.0556 38.4918 32.3338 38.4918C30.612 38.4918 28.9607 37.8078 27.7433 36.5904C26.5258 35.3729 25.8418 33.7216 25.8418 31.9998Z" fill="#4B566B"/>
</g>
<defs>
<clipPath id="clip0_9334_2450">
<rect width="32" height="32" fill="white" transform="translate(16.334 16)"/>
</clipPath>
</defs>
</svg>
