<svg width="65" height="64" viewBox="0 0 65 64" fill="none" xmlns="http://www.w3.org/2000/svg">
<circle cx="32.668" cy="32" r="32" fill="#F3F5F9"/>
<g clip-path="url(#clip0_9334_2472)">
<path fill-rule="evenodd" clip-rule="evenodd" d="M47.002 44C47.002 44 49.002 44 49.002 42C49.002 40 47.002 34 39.002 34C31.002 34 29.002 40 29.002 42C29.002 44 31.002 44 31.002 44H47.002ZM31.046 42H46.958C46.9673 41.9989 46.9767 41.9976 46.986 41.996L47.002 41.992C46.998 41.464 46.668 39.932 45.482 38.552C44.378 37.258 42.438 36 39.002 36C35.568 36 33.628 37.26 32.522 38.552C31.336 39.932 31.004 41.466 31.002 41.992C31.0166 41.9948 31.0313 41.9975 31.046 42ZM39.002 30C40.0628 30 41.0802 29.5786 41.8304 28.8284C42.5805 28.0783 43.002 27.0609 43.002 26C43.002 24.9391 42.5805 23.9217 41.8304 23.1716C41.0802 22.4214 40.0628 22 39.002 22C37.9411 22 36.9237 22.4214 36.1735 23.1716C35.4234 23.9217 35.002 24.9391 35.002 26C35.002 27.0609 35.4234 28.0783 36.1735 28.8284C36.9237 29.5786 37.9411 30 39.002 30ZM45.002 26C45.002 26.7879 44.8468 27.5681 44.5452 28.2961C44.2437 29.0241 43.8017 29.6855 43.2446 30.2426C42.6874 30.7998 42.026 31.2417 41.2981 31.5433C40.5701 31.8448 39.7899 32 39.002 32C38.214 32 37.4338 31.8448 36.7059 31.5433C35.9779 31.2417 35.3165 30.7998 34.7593 30.2426C34.2022 29.6855 33.7602 29.0241 33.4587 28.2961C33.1571 27.5681 33.002 26.7879 33.002 26C33.002 24.4087 33.6341 22.8826 34.7593 21.7574C35.8845 20.6321 37.4107 20 39.002 20C40.5933 20 42.1194 20.6321 43.2446 21.7574C44.3698 22.8826 45.002 24.4087 45.002 26ZM30.874 34.56C30.0739 34.3081 29.2492 34.1425 28.414 34.066C27.9446 34.0214 27.4734 33.9993 27.002 34C19.002 34 17.002 40 17.002 42C17.002 43.334 17.668 44 19.002 44H27.434C27.1375 43.3756 26.9896 42.6911 27.002 42C27.002 39.98 27.756 37.916 29.182 36.192C29.668 35.604 30.234 35.054 30.874 34.56ZM26.842 36C23.506 36.04 21.612 37.28 20.522 38.552C19.328 39.94 19.002 41.478 19.002 42H25.002C25.002 39.91 25.648 37.828 26.842 36ZM20.002 27C20.002 25.4087 20.6341 23.8826 21.7593 22.7574C22.8845 21.6321 24.4107 21 26.002 21C27.5933 21 29.1194 21.6321 30.2446 22.7574C31.3698 23.8826 32.002 25.4087 32.002 27C32.002 28.5913 31.3698 30.1174 30.2446 31.2426C29.1194 32.3679 27.5933 33 26.002 33C24.4107 33 22.8845 32.3679 21.7593 31.2426C20.6341 30.1174 20.002 28.5913 20.002 27ZM26.002 23C24.9411 23 23.9237 23.4214 23.1735 24.1716C22.4234 24.9217 22.002 25.9391 22.002 27C22.002 28.0609 22.4234 29.0783 23.1735 29.8284C23.9237 30.5786 24.9411 31 26.002 31C27.0628 31 28.0802 30.5786 28.8304 29.8284C29.5805 29.0783 30.002 28.0609 30.002 27C30.002 25.9391 29.5805 24.9217 28.8304 24.1716C28.0802 23.4214 27.0628 23 26.002 23Z" fill="#4B566B"/>
</g>
<defs>
<clipPath id="clip0_9334_2472">
<rect width="32" height="32" fill="white" transform="translate(17.002 16)"/>
</clipPath>
</defs>
</svg>
